<svg version="1.1" class="image-style" id="Layer_1" xmlns="http://www.w3.org/2000/svg"
                                xmlns:xlink="http://www.w3.org/1999/xlink" x="0px" y="0px" width="100%"
                                viewBox="0 0 500 500" enable-background="new 0 0 500 500" xml:space="preserve">
                                <path fill="#000000" opacity="1.000000" stroke="none" d="
                       M237.000000,501.000000 
                           C158.000015,501.000000 79.500038,501.000000 1.000042,501.000000 
                           C1.000028,334.333405 1.000028,167.666779 1.000014,1.000132 
                           C167.666565,1.000088 334.333130,1.000088 500.999756,1.000044 
                           C500.999847,167.666519 500.999847,334.333038 500.999939,500.999786 
                           C413.166656,501.000000 325.333344,501.000000 237.000000,501.000000 
                       M321.506775,276.005219 
                           C325.124237,276.005219 328.741669,276.005219 332.761322,276.005219 
                           C332.761322,267.769623 332.761322,260.017944 332.761322,251.812851 
                           C337.617920,251.812851 342.094330,251.541855 346.508362,251.948334 
                           C348.235779,252.107407 350.500885,253.388626 351.355927,254.843521 
                           C354.888672,260.854797 357.910370,267.164093 361.283905,273.273285 
                           C361.905029,274.398071 363.265381,275.849457 364.322327,275.880981 
                           C371.858826,276.105530 379.405121,276.000763 387.717163,276.000763 
                           C381.363434,265.982300 375.546234,256.809784 369.724060,247.629486 
                           C385.441193,238.508789 386.537628,224.457718 384.507568,212.519470 
                           C382.436066,200.337540 373.510345,191.699295 359.377747,190.580505 
                           C343.380402,189.314087 327.205658,190.288391 310.864075,190.288391 
                           C310.864075,218.580795 310.864075,247.158478 310.864075,276.005219 
                           C314.221771,276.005219 317.375458,276.005219 321.506775,276.005219 
                       M97.639557,269.990875 
                           C98.408180,271.986511 99.176811,273.982117 99.826134,275.667999 
                           C107.829132,275.667999 115.359398,275.667999 123.320549,275.667999 
                           C122.566666,273.873383 121.998779,272.519257 121.429123,271.165863 
                           C112.278671,249.426056 103.144127,227.679504 93.965858,205.951447 
                           C91.709122,200.609009 90.669731,193.211411 86.603027,190.596817 
                           C82.318451,187.842148 75.067047,189.859375 69.135582,189.449203 
                           C65.644867,189.207840 63.903999,190.383743 62.504459,193.672455 
                           C51.512714,219.501587 40.305916,245.239182 29.186373,271.014038 
                           C28.549891,272.489349 28.097137,274.043915 27.460024,275.840332 
                           C35.155098,275.840332 42.422676,275.840332 49.783962,275.840332 
                           C51.924736,270.551636 54.035397,265.337372 56.080101,260.286011 
                           C68.869720,260.286011 81.314262,260.286011 93.819054,260.286011 
                           C95.010475,263.397949 96.138878,266.345245 97.639557,269.990875 
                       M282.277618,228.142426 
                           C279.191803,220.789932 276.157654,213.415161 273.003082,206.092285 
                           C270.648102,200.625519 269.509003,193.127411 265.311890,190.384125 
                           C261.083160,187.620178 253.733551,189.824142 247.778793,189.433472 
                           C244.356461,189.208923 242.877838,190.493439 241.576019,193.549438 
                           C230.508896,219.529175 219.254196,245.429016 208.070602,271.359222 
                           C207.496460,272.690430 207.058395,274.080383 206.434433,275.775970 
                           C214.096146,275.775970 221.348755,275.775970 228.804871,275.775970 
                           C230.881241,270.650085 232.996841,265.427368 235.102722,260.228638 
                           C247.771637,260.228638 260.234131,260.228638 272.734406,260.228638 
                           C274.864685,265.570709 276.946503,270.791260 278.972321,275.871307 
                           C286.835754,275.871307 294.308502,275.871307 302.390503,275.871307 
                           C295.720978,259.966644 289.188477,244.388733 282.277618,228.142426 
                       M202.426926,209.260742 
                           C199.283264,199.245956 192.097717,193.322784 182.251205,191.247742 
                           C175.492264,189.823364 168.396133,189.758133 161.437958,189.577484 
                           C151.501373,189.319504 141.553116,189.511826 131.546173,189.511826 
                           C131.546173,218.649796 131.546173,247.187546 131.546173,275.746277 
                           C138.924835,275.746277 145.999252,275.746277 153.486145,275.746277 
                           C153.486145,267.742767 153.486145,259.991516 153.486145,251.746811 
                           C159.686951,251.746811 165.490021,251.958344 171.273102,251.707947 
                           C190.206161,250.888199 201.502136,241.661804 203.532791,224.864471 
                           C204.118744,220.017487 203.047897,214.970200 202.426926,209.260742 
                       M413.256042,207.215469 
                           C414.701935,207.297531 416.147797,207.379608 417.931519,207.480850 
                           C417.931519,230.383820 417.931519,252.971207 417.931519,275.629456 
                           C425.486908,275.629456 432.675751,275.629456 440.229980,275.629456 
                           C440.229980,252.673126 440.229980,230.092194 440.229980,207.039383 
                           C448.987793,207.039383 457.380035,207.039383 465.751221,207.039383 
                           C465.751221,200.962219 465.751221,195.367630 465.751221,189.631592 
                           C441.120331,189.631592 416.728424,189.631592 392.254211,189.631592 
                           C392.254211,195.549835 392.254211,201.153961 392.254211,207.215454 
                           C399.070984,207.215454 405.686493,207.215454 413.256042,207.215469 
                       M367.986115,376.473236 
                           C367.905121,377.798492 367.741333,379.124695 367.756622,380.448853 
                           C367.855377,389.005035 372.074463,395.135132 379.710144,398.377380 
                           C388.110229,401.944214 396.397583,401.108887 403.390289,394.772308 
                           C409.641083,389.108032 411.323853,381.911743 408.919800,373.881714 
                           C406.493713,365.778290 398.221954,360.112335 389.057953,360.025665 
                           C378.736542,359.928040 371.450348,365.366760 367.986115,376.473236 
                       M265.780518,397.366943 
                           C266.604218,398.246643 267.404114,399.859711 268.255524,399.887360 
                           C273.902527,400.070831 279.601013,400.327301 285.206177,399.778320 
                           C295.254242,398.794159 302.396301,390.645050 302.680237,380.564880 
                           C302.957520,370.721588 296.561829,362.237579 286.561279,360.848572 
                           C279.930634,359.927643 273.068420,360.674011 265.777649,360.674011 
                           C265.777649,372.528290 265.777649,384.456970 265.780518,397.366943 
                       M86.450684,395.780853 
                           C93.776154,400.461304 101.461754,401.945923 109.603882,398.112305 
                           C113.593315,396.233917 115.536171,392.883728 115.453514,388.476562 
                           C115.370346,384.042114 113.215233,380.848450 109.135048,379.172943 
                           C105.764191,377.788727 102.050293,377.092529 98.917641,375.328949 
                           C96.931328,374.210785 95.731514,371.695587 94.178986,369.806885 
                           C96.343094,368.631012 98.553345,366.412933 100.661270,366.506256 
                           C104.502403,366.676270 108.282845,368.217194 112.524818,369.297241 
                           C113.230011,367.760773 114.073479,365.923065 114.976044,363.956573 
                           C107.591888,359.721375 100.454811,358.524445 92.996704,361.568695 
                           C88.765518,363.295837 86.504700,366.650909 86.606033,371.340576 
                           C86.702896,375.822540 88.935036,378.879944 93.102501,380.446625 
                           C96.361282,381.671631 99.927940,382.319305 102.876686,384.045380 
                           C104.962357,385.266266 106.244041,387.860626 107.884613,389.841858 
                           C105.639458,391.196716 103.233063,393.885986 101.181587,393.638092 
                           C96.412704,393.061798 91.814987,391.069092 86.133873,389.342163 
                           C86.065002,390.816681 85.961235,393.038269 86.450684,395.780853 
                       M218.178101,394.055603 
                           C211.389877,393.985168 208.220566,392.245941 206.893784,387.316071 
                           C206.258072,384.954041 206.188477,382.397156 206.152725,379.924347 
                           C206.057724,373.353241 206.120483,366.779846 206.120483,360.317261 
                           C203.482040,360.317261 201.689240,360.317261 199.780670,360.317261 
                           C199.780670,369.455200 199.227417,378.428772 199.945694,387.299347 
                           C200.586243,395.209900 206.730194,399.778503 215.181931,400.191345 
                           C224.900269,400.666046 232.150116,396.913666 233.112823,388.866150 
                           C234.239395,379.448761 233.376251,369.793396 233.376251,360.055023 
                           C231.343109,360.149597 229.425034,360.238831 227.151184,360.344604 
                           C227.151184,368.459045 227.248672,376.093109 227.120209,383.723389 
                           C227.018204,389.782501 225.071991,392.078583 218.178101,394.055603 
                       M148.577011,360.107422 
                           C146.127335,360.107422 143.677673,360.107422 141.084076,360.107422 
                           C141.084076,362.376617 141.084076,364.105896 141.084076,366.265259 
                           C145.112411,366.265259 148.869049,366.265259 153.222214,366.265259 
                           C153.222214,377.723480 153.222214,388.765625 153.222214,399.791199 
                           C155.770645,399.791199 157.704712,399.791199 160.191101,399.791199 
                           C160.191101,388.538300 160.191101,377.501038 160.191101,365.998718 
                           C164.659241,365.998718 168.573792,365.998718 172.811691,365.998718 
                           C172.699966,363.770050 172.614182,362.058868 172.516357,360.107422 
                           C164.502167,360.107422 157.028748,360.107422 148.577011,360.107422 
                       M332.710724,360.246338 
                           C332.710724,373.380890 332.710724,386.515411 332.710724,399.723633 
                           C334.274170,399.723633 336.185089,399.723633 338.197662,399.723633 
                           C338.197662,386.535217 338.197662,373.624451 338.197662,360.379822 
                           C336.541870,360.295044 335.092560,360.220825 332.710724,360.246338 
                       z" />
                                <path fill="#ECECEC" opacity="1.000000" stroke="none" d="
                       M321.017975,276.005219 
                           C317.375458,276.005219 314.221771,276.005219 310.864075,276.005219 
                           C310.864075,247.158478 310.864075,218.580795 310.864075,190.288391 
                           C327.205658,190.288391 343.380402,189.314087 359.377747,190.580505 
                           C373.510345,191.699295 382.436066,200.337540 384.507568,212.519470 
                           C386.537628,224.457718 385.441193,238.508789 369.724060,247.629486 
                           C375.546234,256.809784 381.363434,265.982300 387.717163,276.000763 
                           C379.405121,276.000763 371.858826,276.105530 364.322327,275.880981 
                           C363.265381,275.849457 361.905029,274.398071 361.283905,273.273285 
                           C357.910370,267.164093 354.888672,260.854797 351.355927,254.843521 
                           C350.500885,253.388626 348.235779,252.107407 346.508362,251.948334 
                           C342.094330,251.541855 337.617920,251.812851 332.761322,251.812851 
                           C332.761322,260.017944 332.761322,267.769623 332.761322,276.005219 
                           C328.741669,276.005219 325.124237,276.005219 321.017975,276.005219 
                       M337.530396,234.250656 
                           C342.357697,234.201035 347.199707,234.371582 352.008881,234.050491 
                           C359.321930,233.562271 363.708649,229.008774 364.120300,221.959869 
                           C364.610291,213.569550 361.085358,208.214462 353.263031,207.368408 
                           C346.578674,206.645416 339.754089,207.218857 332.763916,207.218857 
                           C332.763916,215.487534 332.905457,223.462540 332.695953,231.428299 
                           C332.609161,234.727325 334.555054,234.280655 337.530396,234.250656 
                       z" />
                                <path fill="#ECECEC" opacity="1.000000" stroke="none" d="
                       M97.453415,269.641724 
                           C96.138878,266.345245 95.010475,263.397949 93.819054,260.286011 
                           C81.314262,260.286011 68.869720,260.286011 56.080101,260.286011 
                           C54.035397,265.337372 51.924736,270.551636 49.783962,275.840332 
                           C42.422676,275.840332 35.155098,275.840332 27.460024,275.840332 
                           C28.097137,274.043915 28.549891,272.489349 29.186373,271.014038 
                           C40.305916,245.239182 51.512714,219.501587 62.504459,193.672455 
                           C63.903999,190.383743 65.644867,189.207840 69.135582,189.449203 
                           C75.067047,189.859375 82.318451,187.842148 86.603027,190.596817 
                           C90.669731,193.211411 91.709122,200.609009 93.965858,205.951447 
                           C103.144127,227.679504 112.278671,249.426056 121.429123,271.165863 
                           C121.998779,272.519257 122.566666,273.873383 123.320549,275.667999 
                           C115.359398,275.667999 107.829132,275.667999 99.826134,275.667999 
                           C99.176811,273.982117 98.408180,271.986511 97.453415,269.641724 
                       M70.194427,223.681885 
                           C67.741974,230.048676 65.289520,236.415466 62.722298,243.080200 
                           C71.203545,243.080200 78.950943,243.080200 87.214478,243.080200 
                           C83.204666,232.745163 79.330376,222.759460 75.028366,211.671310 
                           C73.196930,216.289948 71.868668,219.639648 70.194427,223.681885 
                       z" />
                                <path fill="#ECECEC" opacity="1.000000" stroke="none" d="
                       M282.466797,228.476639 
                           C289.188477,244.388733 295.720978,259.966644 302.390503,275.871307 
                           C294.308502,275.871307 286.835754,275.871307 278.972321,275.871307 
                           C276.946503,270.791260 274.864685,265.570709 272.734406,260.228638 
                           C260.234131,260.228638 247.771637,260.228638 235.102722,260.228638 
                           C232.996841,265.427368 230.881241,270.650085 228.804871,275.775970 
                           C221.348755,275.775970 214.096146,275.775970 206.434433,275.775970 
                           C207.058395,274.080383 207.496460,272.690430 208.070602,271.359222 
                           C219.254196,245.429016 230.508896,219.529175 241.576019,193.549438 
                           C242.877838,190.493439 244.356461,189.208923 247.778793,189.433472 
                           C253.733551,189.824142 261.083160,187.620178 265.311890,190.384125 
                           C269.509003,193.127411 270.648102,200.625519 273.003082,206.092285 
                           C276.157654,213.415161 279.191803,220.789932 282.466797,228.476639 
                       M261.248840,243.276581 
                           C262.727417,243.276581 264.205994,243.276581 266.290558,243.276581 
                           C262.207428,232.758133 258.324585,222.755615 253.992279,211.595291 
                           C249.570099,222.888840 245.681625,232.819397 241.586929,243.276596 
                           C248.353485,243.276596 254.328049,243.276596 261.248840,243.276581 
                       z" />
                                <path fill="#EBEBEB" opacity="1.000000" stroke="none" d="
                       M202.581787,209.637741 
                           C203.047897,214.970200 204.118744,220.017487 203.532791,224.864471 
                           C201.502136,241.661804 190.206161,250.888199 171.273102,251.707947 
                           C165.490021,251.958344 159.686951,251.746811 153.486145,251.746811 
                           C153.486145,259.991516 153.486145,267.742767 153.486145,275.746277 
                           C145.999252,275.746277 138.924835,275.746277 131.546173,275.746277 
                           C131.546173,247.187546 131.546173,218.649796 131.546173,189.511826 
                           C141.553116,189.511826 151.501373,189.319504 161.437958,189.577484 
                           C168.396133,189.758133 175.492264,189.823364 182.251205,191.247742 
                           C192.097717,193.322784 199.283264,199.245956 202.581787,209.637741 
                       M153.385010,213.641937 
                           C153.385010,220.401291 153.385010,227.160645 153.385010,234.127838 
                           C159.412460,234.127838 164.881805,234.353195 170.325348,234.074387 
                           C178.249054,233.668549 182.841125,228.761047 183.030807,221.003464 
                           C183.224930,213.064087 179.076065,207.866547 171.184311,207.182358 
                           C165.455307,206.685684 159.648590,207.085342 153.385025,207.085342 
                           C153.385025,209.115051 153.385025,210.899857 153.385010,213.641937 
                       z" />
                                <path fill="#ECECEC" opacity="1.000000" stroke="none" d="
                       M412.779022,207.215454 
                           C405.686493,207.215454 399.070984,207.215454 392.254211,207.215454 
                           C392.254211,201.153961 392.254211,195.549835 392.254211,189.631592 
                           C416.728424,189.631592 441.120331,189.631592 465.751221,189.631592 
                           C465.751221,195.367630 465.751221,200.962219 465.751221,207.039383 
                           C457.380035,207.039383 448.987793,207.039383 440.229980,207.039383 
                           C440.229980,230.092194 440.229980,252.673126 440.229980,275.629456 
                           C432.675751,275.629456 425.486908,275.629456 417.931519,275.629456 
                           C417.931519,252.971207 417.931519,230.383820 417.931519,207.480850 
                           C416.147797,207.379608 414.701935,207.297531 412.779022,207.215454 
                       z" />
                                <path fill="#B8B6B6" opacity="1.000000" stroke="none" d="
                       M368.030090,376.081055 
                           C371.450348,365.366760 378.736542,359.928040 389.057953,360.025665 
                           C398.221954,360.112335 406.493713,365.778290 408.919800,373.881714 
                           C411.323853,381.911743 409.641083,389.108032 403.390289,394.772308 
                           C396.397583,401.108887 388.110229,401.944214 379.710144,398.377380 
                           C372.074463,395.135132 367.855377,389.005035 367.756622,380.448853 
                           C367.741333,379.124695 367.905121,377.798492 368.030090,376.081055 
                       M380.288513,391.413300 
                           C385.831482,395.102600 391.546082,395.386932 396.997589,391.541351 
                           C401.895782,388.086182 403.842163,383.080048 402.617981,377.138184 
                           C401.411865,371.284088 396.473755,366.937805 390.519745,366.166779 
                           C384.756989,365.420471 378.709259,368.615723 376.034790,373.819733 
                           C373.180267,379.374115 374.512512,385.621704 380.288513,391.413300 
                       z" />
                                <path fill="#BBB9B9" opacity="1.000000" stroke="none" d="
                       M265.779083,396.876312 
                           C265.777649,384.456970 265.777649,372.528290 265.777649,360.674011 
                           C273.068420,360.674011 279.930634,359.927643 286.561279,360.848572 
                           C296.561829,362.237579 302.957520,370.721588 302.680237,380.564880 
                           C302.396301,390.645050 295.254242,398.794159 285.206177,399.778320 
                           C279.601013,400.327301 273.902527,400.070831 268.255524,399.887360 
                           C267.404114,399.859711 266.604218,398.246643 265.779083,396.876312 
                       M272.438141,392.034393 
                           C273.172577,392.687225 273.868530,393.842896 274.648285,393.902527 
                           C277.456451,394.117279 280.304504,394.121613 283.116364,393.916138 
                           C290.293762,393.391541 295.393677,388.114746 295.827026,380.965027 
                           C296.253357,373.930969 291.723267,367.779785 284.653900,366.692383 
                           C280.829132,366.104034 276.839478,366.587555 272.421600,366.587555 
                           C272.421600,374.889618 272.421600,383.000488 272.438141,392.034393 
                       z" />
                                <path fill="#B8B6B6" opacity="1.000000" stroke="none" d="
                       M86.154076,395.520325 
                           C85.961235,393.038269 86.065002,390.816681 86.133873,389.342163 
                           C91.814987,391.069092 96.412704,393.061798 101.181587,393.638092 
                           C103.233063,393.885986 105.639458,391.196716 107.884613,389.841858 
                           C106.244041,387.860626 104.962357,385.266266 102.876686,384.045380 
                           C99.927940,382.319305 96.361282,381.671631 93.102501,380.446625 
                           C88.935036,378.879944 86.702896,375.822540 86.606033,371.340576 
                           C86.504700,366.650909 88.765518,363.295837 92.996704,361.568695 
                           C100.454811,358.524445 107.591888,359.721375 114.976044,363.956573 
                           C114.073479,365.923065 113.230011,367.760773 112.524818,369.297241 
                           C108.282845,368.217194 104.502403,366.676270 100.661270,366.506256 
                           C98.553345,366.412933 96.343094,368.631012 94.178986,369.806885 
                           C95.731514,371.695587 96.931328,374.210785 98.917641,375.328949 
                           C102.050293,377.092529 105.764191,377.788727 109.135048,379.172943 
                           C113.215233,380.848450 115.370346,384.042114 115.453514,388.476562 
                           C115.536171,392.883728 113.593315,396.233917 109.603882,398.112305 
                           C101.461754,401.945923 93.776154,400.461304 86.154076,395.520325 
                       z" />
                                <path fill="#B6B4B4" opacity="1.000000" stroke="none" d="
                       M218.590469,394.024597 
                           C225.071991,392.078583 227.018204,389.782501 227.120209,383.723389 
                           C227.248672,376.093109 227.151184,368.459045 227.151184,360.344604 
                           C229.425034,360.238831 231.343109,360.149597 233.376251,360.055023 
                           C233.376251,369.793396 234.239395,379.448761 233.112823,388.866150 
                           C232.150116,396.913666 224.900269,400.666046 215.181931,400.191345 
                           C206.730194,399.778503 200.586243,395.209900 199.945694,387.299347 
                           C199.227417,378.428772 199.780670,369.455200 199.780670,360.317261 
                           C201.689240,360.317261 203.482040,360.317261 206.120483,360.317261 
                           C206.120483,366.779846 206.057724,373.353241 206.152725,379.924347 
                           C206.188477,382.397156 206.258072,384.954041 206.893784,387.316071 
                           C208.220566,392.245941 211.389877,393.985168 218.590469,394.024597 
                       z" />
                                <path fill="#B7B5B5" opacity="1.000000" stroke="none" d="
                       M149.066162,360.107422 
                           C157.028748,360.107422 164.502167,360.107422 172.516357,360.107422 
                           C172.614182,362.058868 172.699966,363.770050 172.811691,365.998718 
                           C168.573792,365.998718 164.659241,365.998718 160.191101,365.998718 
                           C160.191101,377.501038 160.191101,388.538300 160.191101,399.791199 
                           C157.704712,399.791199 155.770645,399.791199 153.222214,399.791199 
                           C153.222214,388.765625 153.222214,377.723480 153.222214,366.265259 
                           C148.869049,366.265259 145.112411,366.265259 141.084076,366.265259 
                           C141.084076,364.105896 141.084076,362.376617 141.084076,360.107422 
                           C143.677673,360.107422 146.127335,360.107422 149.066162,360.107422 
                       z" />
                                <path fill="#BEBCBC" opacity="1.000000" stroke="none" d="
                       M333.177002,360.196472 
                           C335.092560,360.220825 336.541870,360.295044 338.197662,360.379822 
                           C338.197662,373.624451 338.197662,386.535217 338.197662,399.723633 
                           C336.185089,399.723633 334.274170,399.723633 332.710724,399.723633 
                           C332.710724,386.515411 332.710724,373.380890 333.177002,360.196472 
                       z" />
                                <path fill="#010101" opacity="1.000000" stroke="none" d="
                       M337.034332,234.250519 
                           C334.555054,234.280655 332.609161,234.727325 332.695953,231.428299 
                           C332.905457,223.462540 332.763916,215.487534 332.763916,207.218857 
                           C339.754089,207.218857 346.578674,206.645416 353.263031,207.368408 
                           C361.085358,208.214462 364.610291,213.569550 364.120300,221.959869 
                           C363.708649,229.008774 359.321930,233.562271 352.008881,234.050491 
                           C347.199707,234.371582 342.357697,234.201035 337.034332,234.250519 
                       z" />
                                <path fill="#050505" opacity="1.000000" stroke="none" d="
                       M70.367416,223.335602 
                           C71.868668,219.639648 73.196930,216.289948 75.028366,211.671310 
                           C79.330376,222.759460 83.204666,232.745163 87.214478,243.080200 
                           C78.950943,243.080200 71.203545,243.080200 62.722298,243.080200 
                           C65.289520,236.415466 67.741974,230.048676 70.367416,223.335602 
                       z" />
                                <path fill="#050505" opacity="1.000000" stroke="none" d="
                       M260.775726,243.276581 
                           C254.328049,243.276596 248.353485,243.276596 241.586929,243.276596 
                           C245.681625,232.819397 249.570099,222.888840 253.992279,211.595291 
                           C258.324585,222.755615 262.207428,232.758133 266.290558,243.276581 
                           C264.205994,243.276581 262.727417,243.276581 260.775726,243.276581 
                       z" />
                                <path fill="#050505" opacity="1.000000" stroke="none" d="
                       M153.385010,213.163300 
                           C153.385025,210.899857 153.385025,209.115051 153.385025,207.085342 
                           C159.648590,207.085342 165.455307,206.685684 171.184311,207.182358 
                           C179.076065,207.866547 183.224930,213.064087 183.030807,221.003464 
                           C182.841125,228.761047 178.249054,233.668549 170.325348,234.074387 
                           C164.881805,234.353195 159.412460,234.127838 153.385010,234.127838 
                           C153.385010,227.160645 153.385010,220.401291 153.385010,213.163300 
                       z" />
                                <path fill="#030303" opacity="1.000000" stroke="none" d="
                       M379.987732,391.180054 
                           C374.512512,385.621704 373.180267,379.374115 376.034790,373.819733 
                           C378.709259,368.615723 384.756989,365.420471 390.519745,366.166779 
                           C396.473755,366.937805 401.411865,371.284088 402.617981,377.138184 
                           C403.842163,383.080048 401.895782,388.086182 396.997589,391.541351 
                           C391.546082,395.386932 385.831482,395.102600 379.987732,391.180054 
                       z" />
                                <path fill="#070707" opacity="1.000000" stroke="none" d="
                       M272.429871,391.572876 
                           C272.421600,383.000488 272.421600,374.889618 272.421600,366.587555 
                           C276.839478,366.587555 280.829132,366.104034 284.653900,366.692383 
                           C291.723267,367.779785 296.253357,373.930969 295.827026,380.965027 
                           C295.393677,388.114746 290.293762,393.391541 283.116364,393.916138 
                           C280.304504,394.121613 277.456451,394.117279 274.648285,393.902527 
                           C273.868530,393.842896 273.172577,392.687225 272.429871,391.572876 
                       z" />
                            </svg>